<svg width="70" height="81" viewBox="0 0 70 81" fill="none" xmlns="http://www.w3.org/2000/svg">
<path d="M36.2531 33.3743C37.0533 16.5736 31.5865 8.37401 28.7531 6.37431C13.2529 -6.12501 -3.99964 12.5 1.50036 39.5C7.00036 66.5 32.7531 77.8763 38.2521 79.8763C43.7511 81.8763 45.5013 79.8763 38.2521 66.8743C31.8239 55.3449 35.2527 54.3752 36.2531 33.3743Z" fill="#442101"/>
<path d="M69.5 27.5C73.1 48.3 54.5013 72 48.7526 79.8763C45.2526 78.3786 39.0013 60 39.0013 53C39.0013 46 41.0013 37.0003 41.5013 29C42.0013 20.9996 36.2531 11.3743 36.2531 6.37431C36.2531 1.37433 42.2298 -2.03368 50.7528 1.37419C55.7528 3.3734 66.2118 8.50168 69.5 27.5Z" fill="#442101"/>
</svg>
